PathFileType	4	(X/Y/Z)	OpenSim_Sub06_EMGStiffKnee_Magnet.trc
DataRate	CameraRate	NumFrames	NumMarkers	Units	OrigDataRate	OrigDataStartFrame	OrigNumFrames
100	100	20	8	m	100	3396	5432
Frame#	Time	torso_imu_offset_imu	pelvis_imu_offset_imu	tibia_r_imu_offset_imu	femur_r_imu_offset_imu	tibia_l_imu_offset_imu	femur_l_imu_offset_imu	toes_r_imu_offset_imu	toes_l_imu_offset_imu
				X1	Y1	Z1	X2	Y2	Z2	X3	Y3	Z3	X4	Y4	Z4	X5	Y5	Z5	X6	Y6	Z6	X7	Y7	Z7	X8		Y8	Z8	

3396	33.95000000	-0.90991200	-0.12036100	0.15112300	-0.45776400	0.21679700	-0.77807600	-0.28588900	-0.69873000	-0.26611300	-0.79443400	-0.25195300	0.05004900	-0.64965800	0.46508800	0.09350600	-0.68090800	0.32495100	0.32373000	-0.63085900	-0.41918900	-0.24926800	-0.71020500	-0.06811500	-0.38623000
3397	33.96000000	-0.90966800	-0.12255900	0.15332000	-0.45556600	0.21899400	-0.77343800	-0.30932600	-0.68603500	-0.26660200	-0.79687500	-0.23950200	0.05200200	-0.64746100	0.46948200	0.10229500	-0.67456100	0.33813500	0.32128900	-0.62915000	-0.40258800	-0.28491200	-0.71264600	-0.06372100	-0.37719700
3398	33.97000000	-0.91162100	-0.13085900	0.15576200	-0.45361300	0.21899400	-0.77343800	-0.34106400	-0.66943400	-0.26709000	-0.80127000	-0.22924800	0.05151400	-0.64770500	0.47827100	0.09741200	-0.67675800	0.33813500	0.32568400	-0.61718800	-0.38183600	-0.31640600	-0.71020500	-0.06811500	-0.37719700
3399	33.98000000	-0.91357400	-0.13305700	0.15600600	-0.45800800	0.22314500	-0.77832000	-0.36889600	-0.65502900	-0.26782200	-0.79931600	-0.23120100	0.05615200	-0.64770500	0.47387700	0.09985400	-0.66821300	0.34472700	0.31445300	-0.60742200	-0.35302700	-0.34594700	-0.71484400	-0.06591800	-0.38183600
3400	33.99000000	-0.91137700	-0.13525400	0.15600600	-0.45385700	0.22753900	-0.77392600	-0.41357400	-0.62768600	-0.27978500	-0.79736300	-0.22094700	0.05810500	-0.64111300	0.47827100	0.09960900	-0.66870100	0.35571300	0.32543900	-0.60180700	-0.33447300	-0.38159200	-0.71923800	-0.06835900	-0.37060500
3401	34	-0.90502900	-0.13501000	0.16699200	-0.45361300	0.22314500	-0.77587900	-0.44165000	-0.60498000	-0.27172900	-0.79541000	-0.22290000	0.06274400	-0.63891600	0.48510700	0.09912100	-0.66406200	0.35131800	0.32543900	-0.59399400	-0.30761700	-0.40918000	-0.71704100	-0.06835900	-0.37500000
3402	34.01000000	-0.90942400	-0.13305700	0.16699200	-0.44921900	0.22119100	-0.77587900	-0.47387700	-0.57788100	-0.27490200	-0.79956100	-0.22094700	0.06738300	-0.62793000	0.48730500	0.10351600	-0.66430700	0.36010700	0.32763700	-0.58618200	-0.28295900	-0.43652300	-0.71948200	-0.05957000	-0.37500000
3403	34.02000000	-0.90722700	-0.13501000	0.16699200	-0.45361300	0.22119100	-0.77368200	-0.50415000	-0.54858400	-0.27612300	-0.79931600	-0.22924800	0.07226600	-0.63256800	0.49389600	0.10327100	-0.65991200	0.36230500	0.32763700	-0.57421900	-0.26416000	-0.46386700	-0.71948200	-0.05957000	-0.37280300
3404	34.03000000	-0.90722700	-0.13720700	0.16943400	-0.45141600	0.22338900	-0.78295900	-0.53198200	-0.52783200	-0.27002000	-0.78881800	-0.23535200	0.08837900	-0.63281200	0.50048800	0.09838900	-0.66040000	0.37085000	0.32543900	-0.57104500	-0.23144500	-0.47680700	-0.72631800	-0.05737300	-0.36840800
3405	34.04000000	-0.90698200	-0.13940400	0.16943400	-0.44946300	0.22753900	-0.77856400	-0.56201200	-0.50708000	-0.25512700	-0.79272500	-0.23950200	0.08642600	-0.62597700	0.50048800	0.10498000	-0.65380900	0.37329100	0.32763700	-0.56933600	-0.20678700	-0.49389600	-0.72412100	-0.05737300	-0.37060500
3406	34.05000000	-0.90502900	-0.13720700	0.16943400	-0.45166000	0.22534200	-0.77612300	-0.58178700	-0.48413100	-0.24707000	-0.77978500	-0.25805700	0.09155300	-0.62377900	0.50268600	0.10253900	-0.64965800	0.37988300	0.32519500	-0.57641600	-0.17846700	-0.50048800	-0.72607400	-0.06396500	-0.36840800
3407	34.06000000	-0.90942400	-0.13720700	0.17382800	-0.45361300	0.22534200	-0.78076200	-0.60327100	-0.46948200	-0.22534200	-0.78149400	-0.26440400	0.08960000	-0.61962900	0.50927700	0.10449200	-0.65210000	0.38623000	0.33178700	-0.57934600	-0.14990200	-0.50317400	-0.72851600	-0.05957000	-0.36621100
3408	34.07000000	-0.90942400	-0.13525400	0.16918900	-0.45141600	0.21899400	-0.77807600	-0.62475600	-0.44873000	-0.21044900	-0.78149400	-0.26855500	0.08520500	-0.62182600	0.51147500	0.10205100	-0.64550800	0.39062500	0.32275400	-0.57983400	-0.12939500	-0.50561500	-0.73071300	-0.05957000	-0.35937500
3409	34.08000000	-0.90942400	-0.13525400	0.16699200	-0.45166000	0.22753900	-0.78076200	-0.63183600	-0.42993200	-0.21557600	-0.77075200	-0.28076200	0.09033200	-0.61108400	0.52246100	0.10376000	-0.65234400	0.39282200	0.32739300	-0.57983400	-0.12744100	-0.49926800	-0.73779300	-0.05322300	-0.36401400
3410	34.09000000	-0.91601600	-0.13085900	0.16674800	-0.45361300	0.21899400	-0.77343800	-0.64502000	-0.41113300	-0.20483400	-0.77050800	-0.28491200	0.08129900	-0.61328100	0.52685500	0.09912100	-0.64355500	0.39721700	0.31835900	-0.58398400	-0.12744100	-0.50146500	-0.73730500	-0.06201200	-0.36377000
3411	34.10000000	-0.91162100	-0.13305700	0.16479500	-0.45752000	0.21069300	-0.77783200	-0.64965800	-0.39648400	-0.20996100	-0.76416000	-0.29126000	0.08154300	-0.60693400	0.53344700	0.09863300	-0.63940400	0.40161100	0.32934600	-0.58422900	-0.11938500	-0.50146500	-0.73291000	-0.05957000	-0.36621100
3412	34.11000000	-0.91381800	-0.13085900	0.16015600	-0.45752000	0.21069300	-0.77563500	-0.65380900	-0.39672900	-0.20776400	-0.76635700	-0.28906200	0.09985400	-0.60473600	0.53784200	0.09399400	-0.63940400	0.40600600	0.34521500	-0.59082000	-0.10522500	-0.49755900	-0.73999000	-0.05542000	-0.35498000
3413	34.12000000	-0.91357400	-0.13305700	0.15161100	-0.45752000	0.20654300	-0.78002900	-0.65356400	-0.40283200	-0.20068400	-0.76635700	-0.28710900	0.09741200	-0.60058600	0.54882800	0.08667000	-0.63330100	0.41699200	0.33154300	-0.60351600	-0.10131800	-0.48535200	-0.73974600	-0.05761700	-0.35253900
3414	34.13000000	-0.92041000	-0.12475600	0.15332000	-0.46557600	0.19165000	-0.78418000	-0.64941400	-0.40283200	-0.21191400	-0.76879900	-0.27661100	0.10156200	-0.59179700	0.55542000	0.08178700	-0.62695300	0.42773400	0.33129900	-0.60961900	-0.10961900	-0.47485400	-0.74194300	-0.05981400	-0.35253900
3415	34.14000000	-0.92041000	-0.12255900	0.15112300	-0.46313500	0.18335000	-0.78149400	-0.63867200	-0.41528300	-0.21606400	-0.77319300	-0.26635700	0.10571300	-0.58544900	0.56201200	0.07470700	-0.62695300	0.42993200	0.32910200	-0.61718800	-0.13232400	-0.45166000	-0.74169900	-0.06420900	-0.34375000
